<svg xmlns="http://www.w3.org/2000/svg" viewBox="0 0 192 192">
  <defs>
    <linearGradient id="bg" x1="0%" y1="0%" x2="100%" y2="100%">
      <stop offset="0%" stop-color="#0f172a" />
      <stop offset="100%" stop-color="#1e3a8a" />
    </linearGradient>
    <linearGradient id="drop" x1="0%" y1="0%" x2="0%" y2="100%">
      <stop offset="0%" stop-color="#f0f9ff" />
      <stop offset="100%" stop-color="#bae6fd" />
    </linearGradient>
    <clipPath id="dropClip">
      <path d="M 96,20 C 96,20 156,85 156,131 A 60,60 0 0 1 36,131 C 36,85 96,20 96,20 Z" />
    </clipPath>
  </defs>
  
  <rect width="192" height="192" fill="url(#bg)" />
  
  <path d="M 96,24 C 96,24 156,89 156,135 A 60,60 0 0 1 36,135 C 36,89 96,24 96,24 Z" fill="#020617" opacity="0.4" />
  
  <path d="M 96,20 C 96,20 156,85 156,131 A 60,60 0 0 1 36,131 C 36,85 96,20 96,20 Z" fill="url(#drop)" />
  
  <g clip-path="url(#dropClip)" stroke="#0ea5e9" stroke-width="4" fill="none" opacity="0.5">
    <ellipse cx="96" cy="131" rx="22" ry="60" />
    <ellipse cx="96" cy="131" rx="46" ry="60" />
    <line x1="96" y1="0" x2="96" y2="192" />
    
    <line x1="0" y1="131" x2="192" y2="131" />
    <ellipse cx="96" cy="98" rx="60" ry="14" />
    <ellipse cx="96" cy="164" rx="60" ry="14" />
    <ellipse cx="96" cy="65" rx="35" ry="8" />
  </g>

  <path d="M 52,110 Q 42,70 82,40" fill="none" stroke="#ffffff" stroke-width="5" stroke-linecap="round" opacity="0.9" />
</svg>
